<mxfile host="65bd71144e">
    <diagram name="Page-1" id="pSrCWTQ0MrUmyBq-erhx">
        <mxGraphModel dx="2056" dy="780" grid="1" gridSize="10" guides="1" tooltips="1" connect="1" arrows="1" fold="1" page="1" pageScale="1" pageWidth="850" pageHeight="1100" math="0" shadow="0">
            <root>
                <mxCell id="0"/>
                <mxCell id="1" parent="0"/>
                <mxCell id="HHzDjh5W3xl2r-wXphZd-11" value="User" style="whiteSpace=wrap;html=1;align=center;" parent="1" vertex="1">
                    <mxGeometry x="230" y="240" width="100" height="40" as="geometry"/>
                </mxCell>
                <mxCell id="11" style="edgeStyle=none;html=1;exitX=0.25;exitY=1;exitDx=0;exitDy=0;entryX=1;entryY=0.5;entryDx=0;entryDy=0;endArrow=none;endFill=0;" edge="1" parent="1" source="HHzDjh5W3xl2r-wXphZd-13" target="8">
                    <mxGeometry relative="1" as="geometry"/>
                </mxCell>
                <mxCell id="12" value="N" style="edgeLabel;html=1;align=center;verticalAlign=middle;resizable=0;points=[];" vertex="1" connectable="0" parent="11">
                    <mxGeometry x="-0.7701" y="1" relative="1" as="geometry">
                        <mxPoint as="offset"/>
                    </mxGeometry>
                </mxCell>
                <mxCell id="13" value="N" style="edgeLabel;html=1;align=center;verticalAlign=middle;resizable=0;points=[];" vertex="1" connectable="0" parent="11">
                    <mxGeometry x="0.6998" y="-2" relative="1" as="geometry">
                        <mxPoint x="1" as="offset"/>
                    </mxGeometry>
                </mxCell>
                <mxCell id="HHzDjh5W3xl2r-wXphZd-13" value="Admin" style="whiteSpace=wrap;html=1;align=center;" parent="1" vertex="1">
                    <mxGeometry x="450" y="460" width="100" height="40" as="geometry"/>
                </mxCell>
                <mxCell id="HHzDjh5W3xl2r-wXphZd-16" value="Password" style="ellipse;whiteSpace=wrap;html=1;align=center;" parent="1" vertex="1">
                    <mxGeometry x="180" y="120" width="100" height="40" as="geometry"/>
                </mxCell>
                <mxCell id="HHzDjh5W3xl2r-wXphZd-17" value="Name" style="ellipse;whiteSpace=wrap;html=1;align=center;" parent="1" vertex="1">
                    <mxGeometry x="40" y="120" width="100" height="40" as="geometry"/>
                </mxCell>
                <mxCell id="HHzDjh5W3xl2r-wXphZd-18" value="email" style="ellipse;whiteSpace=wrap;html=1;align=center;fontStyle=4;" parent="1" vertex="1">
                    <mxGeometry x="310" y="120" width="100" height="40" as="geometry"/>
                </mxCell>
                <mxCell id="HHzDjh5W3xl2r-wXphZd-35" value="" style="endArrow=none;html=1;rounded=0;exitX=0;exitY=0;exitDx=0;exitDy=0;entryX=0.5;entryY=1;entryDx=0;entryDy=0;" parent="1" source="HHzDjh5W3xl2r-wXphZd-11" target="HHzDjh5W3xl2r-wXphZd-17" edge="1">
                    <mxGeometry width="50" height="50" relative="1" as="geometry">
                        <mxPoint x="50" y="210" as="sourcePoint"/>
                        <mxPoint x="100" y="160" as="targetPoint"/>
                    </mxGeometry>
                </mxCell>
                <mxCell id="HHzDjh5W3xl2r-wXphZd-36" value="" style="endArrow=none;html=1;rounded=0;exitX=0.5;exitY=0;exitDx=0;exitDy=0;entryX=0.403;entryY=0.975;entryDx=0;entryDy=0;entryPerimeter=0;" parent="1" source="HHzDjh5W3xl2r-wXphZd-11" target="HHzDjh5W3xl2r-wXphZd-16" edge="1">
                    <mxGeometry width="50" height="50" relative="1" as="geometry">
                        <mxPoint x="280" y="230" as="sourcePoint"/>
                        <mxPoint x="240" y="170" as="targetPoint"/>
                    </mxGeometry>
                </mxCell>
                <mxCell id="HHzDjh5W3xl2r-wXphZd-37" value="" style="endArrow=none;html=1;rounded=0;entryX=0;entryY=1;entryDx=0;entryDy=0;" parent="1" target="HHzDjh5W3xl2r-wXphZd-18" edge="1">
                    <mxGeometry width="50" height="50" relative="1" as="geometry">
                        <mxPoint x="320" y="240" as="sourcePoint"/>
                        <mxPoint x="370" y="170" as="targetPoint"/>
                    </mxGeometry>
                </mxCell>
                <mxCell id="HHzDjh5W3xl2r-wXphZd-39" value="email" style="ellipse;whiteSpace=wrap;html=1;align=center;fontStyle=4;" parent="1" vertex="1">
                    <mxGeometry x="670" y="550" width="100" height="40" as="geometry"/>
                </mxCell>
                <mxCell id="HHzDjh5W3xl2r-wXphZd-40" value="Password" style="ellipse;whiteSpace=wrap;html=1;align=center;" parent="1" vertex="1">
                    <mxGeometry x="620" y="600" width="100" height="40" as="geometry"/>
                </mxCell>
                <mxCell id="HHzDjh5W3xl2r-wXphZd-41" value="Name" style="ellipse;whiteSpace=wrap;html=1;align=center;" parent="1" vertex="1">
                    <mxGeometry x="720" y="500" width="100" height="40" as="geometry"/>
                </mxCell>
                <mxCell id="HHzDjh5W3xl2r-wXphZd-43" value="" style="endArrow=none;html=1;rounded=0;entryX=0;entryY=0.5;entryDx=0;entryDy=0;exitX=1;exitY=0.5;exitDx=0;exitDy=0;" parent="1" target="HHzDjh5W3xl2r-wXphZd-41" edge="1" source="HHzDjh5W3xl2r-wXphZd-13">
                    <mxGeometry width="50" height="50" relative="1" as="geometry">
                        <mxPoint x="560" y="460" as="sourcePoint"/>
                        <mxPoint x="600" y="380" as="targetPoint"/>
                    </mxGeometry>
                </mxCell>
                <mxCell id="HHzDjh5W3xl2r-wXphZd-44" value="" style="endArrow=none;html=1;rounded=0;entryX=0;entryY=0.5;entryDx=0;entryDy=0;exitX=1;exitY=0.75;exitDx=0;exitDy=0;" parent="1" source="HHzDjh5W3xl2r-wXphZd-13" target="HHzDjh5W3xl2r-wXphZd-39" edge="1">
                    <mxGeometry width="50" height="50" relative="1" as="geometry">
                        <mxPoint x="570" y="480" as="sourcePoint"/>
                        <mxPoint x="610" y="410" as="targetPoint"/>
                    </mxGeometry>
                </mxCell>
                <mxCell id="HHzDjh5W3xl2r-wXphZd-48" value="" style="endArrow=none;html=1;rounded=0;exitX=0;exitY=0;exitDx=0;exitDy=0;entryX=1;entryY=1;entryDx=0;entryDy=0;" parent="1" source="HHzDjh5W3xl2r-wXphZd-40" target="HHzDjh5W3xl2r-wXphZd-13" edge="1">
                    <mxGeometry width="50" height="50" relative="1" as="geometry">
                        <mxPoint x="600" y="500" as="sourcePoint"/>
                        <mxPoint x="650" y="450" as="targetPoint"/>
                    </mxGeometry>
                </mxCell>
                <mxCell id="HHzDjh5W3xl2r-wXphZd-49" value="send" style="shape=rhombus;perimeter=rhombusPerimeter;whiteSpace=wrap;html=1;align=center;" parent="1" vertex="1">
                    <mxGeometry x="150" y="380" width="120" height="50" as="geometry"/>
                </mxCell>
                <mxCell id="HHzDjh5W3xl2r-wXphZd-50" value="Messages" style="rounded=1;arcSize=10;whiteSpace=wrap;html=1;align=center;" parent="1" vertex="1">
                    <mxGeometry x="70" y="550" width="100" height="40" as="geometry"/>
                </mxCell>
                <mxCell id="HHzDjh5W3xl2r-wXphZd-52" value="id" style="ellipse;whiteSpace=wrap;html=1;align=center;fontStyle=4;" parent="1" vertex="1">
                    <mxGeometry x="-190" y="490" width="100" height="40" as="geometry"/>
                </mxCell>
                <mxCell id="HHzDjh5W3xl2r-wXphZd-53" value="Time" style="ellipse;whiteSpace=wrap;html=1;align=center;" parent="1" vertex="1">
                    <mxGeometry x="-190" y="590" width="100" height="40" as="geometry"/>
                </mxCell>
                <mxCell id="HHzDjh5W3xl2r-wXphZd-55" value="content" style="ellipse;whiteSpace=wrap;html=1;align=center;" parent="1" vertex="1">
                    <mxGeometry x="-190" y="540" width="100" height="40" as="geometry"/>
                </mxCell>
                <mxCell id="HHzDjh5W3xl2r-wXphZd-58" value="" style="endArrow=none;html=1;rounded=0;entryX=0;entryY=0;entryDx=0;entryDy=0;exitX=1;exitY=1;exitDx=0;exitDy=0;" parent="1" source="HHzDjh5W3xl2r-wXphZd-52" target="HHzDjh5W3xl2r-wXphZd-50" edge="1">
                    <mxGeometry width="50" height="50" relative="1" as="geometry">
                        <mxPoint x="10" y="460" as="sourcePoint"/>
                        <mxPoint x="60" y="410" as="targetPoint"/>
                    </mxGeometry>
                </mxCell>
                <mxCell id="HHzDjh5W3xl2r-wXphZd-59" value="" style="endArrow=none;html=1;rounded=0;entryX=0;entryY=0.25;entryDx=0;entryDy=0;exitX=1;exitY=0.5;exitDx=0;exitDy=0;" parent="1" source="HHzDjh5W3xl2r-wXphZd-55" target="HHzDjh5W3xl2r-wXphZd-50" edge="1">
                    <mxGeometry width="50" height="50" relative="1" as="geometry">
                        <mxPoint x="10" y="520" as="sourcePoint"/>
                        <mxPoint x="60" y="470" as="targetPoint"/>
                    </mxGeometry>
                </mxCell>
                <mxCell id="HHzDjh5W3xl2r-wXphZd-61" value="" style="endArrow=none;html=1;rounded=0;exitX=1;exitY=0.5;exitDx=0;exitDy=0;entryX=0;entryY=1;entryDx=0;entryDy=0;" parent="1" source="HHzDjh5W3xl2r-wXphZd-53" target="HHzDjh5W3xl2r-wXphZd-50" edge="1">
                    <mxGeometry width="50" height="50" relative="1" as="geometry">
                        <mxPoint x="20" y="640" as="sourcePoint"/>
                        <mxPoint x="70" y="590" as="targetPoint"/>
                    </mxGeometry>
                </mxCell>
                <mxCell id="HHzDjh5W3xl2r-wXphZd-65" value="" style="endArrow=none;html=1;rounded=0;entryX=0.5;entryY=1;entryDx=0;entryDy=0;exitX=0.5;exitY=0;exitDx=0;exitDy=0;" parent="1" source="HHzDjh5W3xl2r-wXphZd-49" target="HHzDjh5W3xl2r-wXphZd-11" edge="1">
                    <mxGeometry relative="1" as="geometry">
                        <mxPoint x="240" y="390" as="sourcePoint"/>
                        <mxPoint x="510" y="400" as="targetPoint"/>
                    </mxGeometry>
                </mxCell>
                <mxCell id="HHzDjh5W3xl2r-wXphZd-66" value="1" style="resizable=0;html=1;whiteSpace=wrap;align=right;verticalAlign=bottom;" parent="HHzDjh5W3xl2r-wXphZd-65" connectable="0" vertex="1">
                    <mxGeometry x="1" relative="1" as="geometry">
                        <mxPoint x="-24" y="46" as="offset"/>
                    </mxGeometry>
                </mxCell>
                <mxCell id="HHzDjh5W3xl2r-wXphZd-67" value="" style="endArrow=none;html=1;rounded=0;exitX=0.5;exitY=1;exitDx=0;exitDy=0;entryX=0.85;entryY=-0.058;entryDx=0;entryDy=0;entryPerimeter=0;" parent="1" source="HHzDjh5W3xl2r-wXphZd-49" target="HHzDjh5W3xl2r-wXphZd-50" edge="1">
                    <mxGeometry relative="1" as="geometry">
                        <mxPoint x="350" y="400" as="sourcePoint"/>
                        <mxPoint x="510" y="400" as="targetPoint"/>
                    </mxGeometry>
                </mxCell>
                <mxCell id="HHzDjh5W3xl2r-wXphZd-68" value="N" style="resizable=0;html=1;whiteSpace=wrap;align=right;verticalAlign=bottom;" parent="HHzDjh5W3xl2r-wXphZd-67" connectable="0" vertex="1">
                    <mxGeometry x="1" relative="1" as="geometry">
                        <mxPoint x="15" y="-18" as="offset"/>
                    </mxGeometry>
                </mxCell>
                <mxCell id="HHzDjh5W3xl2r-wXphZd-69" value="delete" style="shape=rhombus;perimeter=rhombusPerimeter;whiteSpace=wrap;html=1;align=center;" parent="1" vertex="1">
                    <mxGeometry x="245" y="420" width="120" height="60" as="geometry"/>
                </mxCell>
                <mxCell id="HHzDjh5W3xl2r-wXphZd-73" value="" style="endArrow=none;html=1;rounded=0;exitX=1;exitY=0.5;exitDx=0;exitDy=0;entryX=0.5;entryY=1;entryDx=0;entryDy=0;" parent="1" source="HHzDjh5W3xl2r-wXphZd-50" target="HHzDjh5W3xl2r-wXphZd-69" edge="1">
                    <mxGeometry relative="1" as="geometry">
                        <mxPoint x="350" y="400" as="sourcePoint"/>
                        <mxPoint x="290" y="560" as="targetPoint"/>
                    </mxGeometry>
                </mxCell>
                <mxCell id="10" value="N" style="edgeLabel;html=1;align=center;verticalAlign=middle;resizable=0;points=[];" vertex="1" connectable="0" parent="HHzDjh5W3xl2r-wXphZd-73">
                    <mxGeometry x="0.6988" y="1" relative="1" as="geometry">
                        <mxPoint as="offset"/>
                    </mxGeometry>
                </mxCell>
                <mxCell id="HHzDjh5W3xl2r-wXphZd-75" value="" style="endArrow=none;html=1;rounded=0;entryX=0.75;entryY=1;entryDx=0;entryDy=0;exitX=0.5;exitY=0;exitDx=0;exitDy=0;" parent="1" target="HHzDjh5W3xl2r-wXphZd-11" edge="1" source="HHzDjh5W3xl2r-wXphZd-69">
                    <mxGeometry relative="1" as="geometry">
                        <mxPoint x="350" y="540" as="sourcePoint"/>
                        <mxPoint x="510" y="540" as="targetPoint"/>
                    </mxGeometry>
                </mxCell>
                <mxCell id="HHzDjh5W3xl2r-wXphZd-76" value="1" style="resizable=0;html=1;whiteSpace=wrap;align=right;verticalAlign=bottom;" parent="HHzDjh5W3xl2r-wXphZd-75" connectable="0" vertex="1">
                    <mxGeometry x="1" relative="1" as="geometry">
                        <mxPoint y="49" as="offset"/>
                    </mxGeometry>
                </mxCell>
                <mxCell id="HHzDjh5W3xl2r-wXphZd-83" value="Search" style="shape=rhombus;perimeter=rhombusPerimeter;whiteSpace=wrap;html=1;align=center;" parent="1" vertex="1">
                    <mxGeometry x="60" y="340" width="120" height="60" as="geometry"/>
                </mxCell>
                <mxCell id="HHzDjh5W3xl2r-wXphZd-84" value="" style="endArrow=none;html=1;rounded=0;exitX=0.5;exitY=0;exitDx=0;exitDy=0;entryX=0;entryY=0.75;entryDx=0;entryDy=0;" parent="1" source="HHzDjh5W3xl2r-wXphZd-83" target="HHzDjh5W3xl2r-wXphZd-11" edge="1">
                    <mxGeometry relative="1" as="geometry">
                        <mxPoint x="90" y="400" as="sourcePoint"/>
                        <mxPoint x="250" y="400" as="targetPoint"/>
                    </mxGeometry>
                </mxCell>
                <mxCell id="HHzDjh5W3xl2r-wXphZd-85" value="1" style="resizable=0;html=1;whiteSpace=wrap;align=right;verticalAlign=bottom;" parent="HHzDjh5W3xl2r-wXphZd-84" connectable="0" vertex="1">
                    <mxGeometry x="1" relative="1" as="geometry">
                        <mxPoint x="-50" y="20" as="offset"/>
                    </mxGeometry>
                </mxCell>
                <mxCell id="HHzDjh5W3xl2r-wXphZd-86" value="" style="endArrow=none;html=1;rounded=0;exitX=0.5;exitY=1;exitDx=0;exitDy=0;entryX=0.25;entryY=0;entryDx=0;entryDy=0;" parent="1" source="HHzDjh5W3xl2r-wXphZd-83" target="HHzDjh5W3xl2r-wXphZd-50" edge="1">
                    <mxGeometry relative="1" as="geometry">
                        <mxPoint x="90" y="400" as="sourcePoint"/>
                        <mxPoint x="250" y="400" as="targetPoint"/>
                    </mxGeometry>
                </mxCell>
                <mxCell id="HHzDjh5W3xl2r-wXphZd-87" value="N" style="resizable=0;html=1;whiteSpace=wrap;align=right;verticalAlign=bottom;" parent="HHzDjh5W3xl2r-wXphZd-86" connectable="0" vertex="1">
                    <mxGeometry x="1" relative="1" as="geometry">
                        <mxPoint x="5" y="-10" as="offset"/>
                    </mxGeometry>
                </mxCell>
                <mxCell id="HHzDjh5W3xl2r-wXphZd-88" value="Ban/unban" style="shape=rhombus;perimeter=rhombusPerimeter;whiteSpace=wrap;html=1;align=center;" parent="1" vertex="1">
                    <mxGeometry x="380" y="320" width="90" height="60" as="geometry"/>
                </mxCell>
                <mxCell id="HHzDjh5W3xl2r-wXphZd-91" value="" style="endArrow=none;html=1;rounded=0;exitX=0.5;exitY=0;exitDx=0;exitDy=0;entryX=1;entryY=1;entryDx=0;entryDy=0;" parent="1" source="HHzDjh5W3xl2r-wXphZd-88" target="HHzDjh5W3xl2r-wXphZd-11" edge="1">
                    <mxGeometry relative="1" as="geometry">
                        <mxPoint x="425" y="340" as="sourcePoint"/>
                        <mxPoint x="335" y="290" as="targetPoint"/>
                    </mxGeometry>
                </mxCell>
                <mxCell id="HHzDjh5W3xl2r-wXphZd-92" value="N" style="resizable=0;html=1;whiteSpace=wrap;align=right;verticalAlign=bottom;" parent="HHzDjh5W3xl2r-wXphZd-91" connectable="0" vertex="1">
                    <mxGeometry x="1" relative="1" as="geometry">
                        <mxPoint x="30" y="20" as="offset"/>
                    </mxGeometry>
                </mxCell>
                <mxCell id="HHzDjh5W3xl2r-wXphZd-98" value="" style="endArrow=none;html=1;rounded=0;exitX=0.5;exitY=1;exitDx=0;exitDy=0;entryX=0.25;entryY=0;entryDx=0;entryDy=0;" parent="1" source="HHzDjh5W3xl2r-wXphZd-88" target="HHzDjh5W3xl2r-wXphZd-13" edge="1">
                    <mxGeometry relative="1" as="geometry">
                        <mxPoint x="370" y="400" as="sourcePoint"/>
                        <mxPoint x="530" y="400" as="targetPoint"/>
                    </mxGeometry>
                </mxCell>
                <mxCell id="HHzDjh5W3xl2r-wXphZd-99" value="1" style="resizable=0;html=1;whiteSpace=wrap;align=right;verticalAlign=bottom;" parent="HHzDjh5W3xl2r-wXphZd-98" connectable="0" vertex="1">
                    <mxGeometry x="1" relative="1" as="geometry">
                        <mxPoint x="-10" y="-20" as="offset"/>
                    </mxGeometry>
                </mxCell>
                <mxCell id="HHzDjh5W3xl2r-wXphZd-109" style="edgeStyle=orthogonalEdgeStyle;rounded=0;orthogonalLoop=1;jettySize=auto;html=1;exitX=0.5;exitY=1;exitDx=0;exitDy=0;" parent="1" edge="1">
                    <mxGeometry relative="1" as="geometry">
                        <mxPoint x="570" y="310" as="sourcePoint"/>
                        <mxPoint x="570" y="310" as="targetPoint"/>
                    </mxGeometry>
                </mxCell>
                <mxCell id="2" value="Recieve" style="shape=rhombus;perimeter=rhombusPerimeter;whiteSpace=wrap;html=1;align=center;" vertex="1" parent="1">
                    <mxGeometry x="-80" y="355" width="120" height="50" as="geometry"/>
                </mxCell>
                <mxCell id="3" value="" style="endArrow=none;html=1;rounded=0;entryX=0;entryY=0.5;entryDx=0;entryDy=0;exitX=0.5;exitY=0;exitDx=0;exitDy=0;" edge="1" parent="1" source="2" target="HHzDjh5W3xl2r-wXphZd-11">
                    <mxGeometry relative="1" as="geometry">
                        <mxPoint x="-10" y="310" as="sourcePoint"/>
                        <mxPoint x="30" y="200" as="targetPoint"/>
                    </mxGeometry>
                </mxCell>
                <mxCell id="4" value="N" style="resizable=0;html=1;whiteSpace=wrap;align=right;verticalAlign=bottom;" connectable="0" vertex="1" parent="3">
                    <mxGeometry x="1" relative="1" as="geometry">
                        <mxPoint x="-24" y="46" as="offset"/>
                    </mxGeometry>
                </mxCell>
                <mxCell id="5" value="" style="endArrow=none;html=1;rounded=0;exitX=0.5;exitY=1;exitDx=0;exitDy=0;entryX=0;entryY=0;entryDx=0;entryDy=0;" edge="1" parent="1" source="2" target="HHzDjh5W3xl2r-wXphZd-50">
                    <mxGeometry relative="1" as="geometry">
                        <mxPoint x="100" y="320" as="sourcePoint"/>
                        <mxPoint x="-95" y="467.68000000000006" as="targetPoint"/>
                    </mxGeometry>
                </mxCell>
                <mxCell id="6" value="N" style="resizable=0;html=1;whiteSpace=wrap;align=right;verticalAlign=bottom;" connectable="0" vertex="1" parent="5">
                    <mxGeometry x="1" relative="1" as="geometry">
                        <mxPoint x="15" y="-18" as="offset"/>
                    </mxGeometry>
                </mxCell>
                <mxCell id="7" value="Many Admins&lt;br&gt;&lt;br&gt;Relations" style="text;html=1;align=center;verticalAlign=middle;resizable=0;points=[];autosize=1;strokeColor=none;fillColor=none;" vertex="1" parent="1">
                    <mxGeometry x="580" y="215" width="100" height="60" as="geometry"/>
                </mxCell>
                <mxCell id="9" style="edgeStyle=none;html=1;exitX=0;exitY=0.5;exitDx=0;exitDy=0;entryX=1;entryY=0.75;entryDx=0;entryDy=0;endArrow=none;endFill=0;" edge="1" parent="1" source="8" target="HHzDjh5W3xl2r-wXphZd-50">
                    <mxGeometry relative="1" as="geometry"/>
                </mxCell>
                <mxCell id="8" value="delete" style="shape=rhombus;perimeter=rhombusPerimeter;whiteSpace=wrap;html=1;align=center;" vertex="1" parent="1">
                    <mxGeometry x="250" y="570" width="110" height="60" as="geometry"/>
                </mxCell>
            </root>
        </mxGraphModel>
    </diagram>
</mxfile>